<svg width="36" height="36" viewBox="0 0 36 36" fill="none" xmlns="http://www.w3.org/2000/svg">
<g clip-path="url(#clip0_310_7009)">
<path d="M15.2122 24.8454L8.47949 18.1111L10.7232 15.8674L15.2122 20.3548L24.187 11.3784L26.4323 13.6237L15.2122 24.8454Z" fill="#004A06"/>
<path fill-rule="evenodd" clip-rule="evenodd" d="M0.545898 18C0.545898 8.36035 8.36077 0.545471 18.0004 0.545471C27.6401 0.545471 35.455 8.36035 35.455 18C35.455 27.6397 27.6401 35.4546 18.0004 35.4546C8.36077 35.4546 0.545898 27.6397 0.545898 18ZM18.0004 32.281C16.125 32.281 14.268 31.9116 12.5353 31.1939C10.8027 30.4762 9.22837 29.4243 7.90226 28.0982C6.57614 26.7721 5.52421 25.1978 4.80653 23.4651C4.08884 21.7325 3.71945 19.8754 3.71945 18C3.71945 16.1246 4.08884 14.2676 4.80653 12.5349C5.52421 10.8023 6.57614 9.22794 7.90226 7.90183C9.22837 6.57572 10.8027 5.52379 12.5353 4.8061C14.268 4.08841 16.125 3.71902 18.0004 3.71902C21.788 3.71902 25.4204 5.22362 28.0986 7.90183C30.7768 10.58 32.2814 14.2125 32.2814 18C32.2814 21.7876 30.7768 25.42 28.0986 28.0982C25.4204 30.7764 21.788 32.281 18.0004 32.281Z" fill="#004A06"/>
</g>
<defs>
<clipPath id="clip0_310_7009">
<rect width="36" height="36" fill="white"/>
</clipPath>
</defs>
</svg>
