<svg width="20" height="20" viewBox="0 0 20 20" fill="none" xmlns="http://www.w3.org/2000/svg">
<path d="M11.2391 5.54239C10.9739 5.22418 10.501 5.18118 10.1828 5.44636C9.8646 5.71153 9.82161 6.18445 10.0868 6.50266L11.2391 5.54239ZM13.9775 10L14.5537 10.4802C14.7855 10.202 14.7855 9.79802 14.5537 9.51989L13.9775 10ZM10.0868 13.4974C9.82161 13.8156 9.8646 14.2885 10.1828 14.5537C10.501 14.8189 10.9739 14.7759 11.2391 14.4577L10.0868 13.4974ZM6.02253 9.25003C5.60831 9.25003 5.27253 9.58581 5.27253 10C5.27253 10.4142 5.60831 10.75 6.02253 10.75L6.02253 9.25003ZM10.0868 6.50266L13.4014 10.4802L14.5537 9.51989L11.2391 5.54239L10.0868 6.50266ZM13.4014 9.51989L10.0868 13.4974L11.2391 14.4577L14.5537 10.4802L13.4014 9.51989ZM13.9775 9.25003L6.02253 9.25003L6.02253 10.75L13.9775 10.75V9.25003ZM15.8336 4.16637C19.0555 7.38819 19.0555 12.6118 15.8336 15.8336L16.8943 16.8943C20.7019 13.0867 20.7019 6.91332 16.8943 3.10571L15.8336 4.16637ZM15.8336 15.8336C12.6118 19.0555 7.38819 19.0555 4.16637 15.8336L3.10571 16.8943C6.91332 20.7019 13.0867 20.7019 16.8943 16.8943L15.8336 15.8336ZM4.16637 15.8336C0.944544 12.6118 0.944544 7.38819 4.16637 4.16637L3.10571 3.10571C-0.701903 6.91332 -0.701903 13.0867 3.10571 16.8943L4.16637 15.8336ZM4.16637 4.16637C7.38819 0.944544 12.6118 0.944544 15.8336 4.16637L16.8943 3.10571C13.0867 -0.701903 6.91332 -0.701903 3.10571 3.10571L4.16637 4.16637Z" fill="#353535"/>
</svg>
