<svg width="11" height="6" viewBox="0 0 11 6" fill="none" xmlns="http://www.w3.org/2000/svg">
<path fill-rule="evenodd" clip-rule="evenodd" d="M6.00433 5.77093C5.85762 5.91761 5.65866 6 5.4512 6C5.24375 6 5.04479 5.91761 4.89807 5.77093L0.472245 1.34511C0.397521 1.27294 0.337919 1.18661 0.296916 1.09116C0.255913 0.995705 0.234331 0.893043 0.233428 0.789161C0.232525 0.68528 0.252321 0.582259 0.291659 0.486109C0.330996 0.38996 0.389089 0.302607 0.462547 0.229149C0.536006 0.15569 0.623358 0.0975976 0.719507 0.0582597C0.815657 0.0189218 0.918678 -0.000873164 1.02256 2.95397e-05C1.12644 0.000932243 1.2291 0.0225147 1.32455 0.0635176C1.42001 0.10452 1.50634 0.164122 1.57851 0.238846L5.4512 4.11154L9.3239 0.238846C9.47146 0.0963322 9.66908 0.0174745 9.87421 0.019257C10.0793 0.0210396 10.2756 0.10332 10.4206 0.248376C10.5657 0.393433 10.648 0.589659 10.6498 0.794792C10.6515 0.999925 10.5727 1.19755 10.4302 1.34511L6.00433 5.77093Z" fill="#121212"/>
</svg>
