<svg width="20" height="20" viewBox="0 0 20 20" fill="none" xmlns="http://www.w3.org/2000/svg">
<path d="M12.9913 12.5865C13.3843 12.7175 13.809 12.5051 13.94 12.1122C14.071 11.7192 13.8586 11.2945 13.4657 11.1635L12.9913 12.5865ZM10.416 10.9375H9.66602C9.66602 11.2603 9.87259 11.5469 10.1788 11.649L10.416 10.9375ZM11.166 7.01739C11.166 6.60318 10.8302 6.26739 10.416 6.26739C10.0018 6.26739 9.66602 6.60318 9.66602 7.01739H11.166ZM13.4657 11.1635L10.6532 10.226L10.1788 11.649L12.9913 12.5865L13.4657 11.1635ZM11.166 10.9375V7.01739H9.66602V10.9375H11.166ZM17.166 10C17.166 13.7279 14.1439 16.75 10.416 16.75V18.25C14.9724 18.25 18.666 14.5563 18.666 10H17.166ZM10.416 16.75C6.68809 16.75 3.66602 13.7279 3.66602 10H2.16602C2.16602 14.5563 5.85967 18.25 10.416 18.25V16.75ZM3.66602 10C3.66602 6.27208 6.68809 3.25 10.416 3.25V1.75C5.85967 1.75 2.16602 5.44365 2.16602 10H3.66602ZM10.416 3.25C14.1439 3.25 17.166 6.27208 17.166 10H18.666C18.666 5.44365 14.9724 1.75 10.416 1.75V3.25Z" fill="#353535"/>
</svg>
