<svg width="24" height="25" viewBox="0 0 24 25" fill="none" xmlns="http://www.w3.org/2000/svg">
<path d="M2.39999 2.74274C1.98578 2.74274 1.64999 3.07852 1.64999 3.49274C1.64999 3.90695 1.98578 4.24274 2.39999 4.24274V2.74274ZM4.69253 3.49274L5.41645 3.29668C5.32791 2.96975 5.03124 2.74274 4.69253 2.74274V3.49274ZM8.4179 17.248L7.69398 17.444C7.79169 17.8048 8.14008 18.0385 8.51093 17.9922L8.4179 17.248ZM19.8806 15.8151L19.9736 16.5593C20.2921 16.5195 20.55 16.2814 20.615 15.9671L19.8806 15.8151ZM21.6 7.50468L22.3344 7.65663C22.3801 7.43575 22.324 7.20602 22.1816 7.03111C22.0391 6.8562 21.8256 6.75468 21.6 6.75468V7.50468ZM5.7791 7.50468L5.05518 7.70074L5.7791 7.50468ZM2.39999 4.24274H4.69253V2.74274H2.39999V4.24274ZM8.51093 17.9922L19.9736 16.5593L19.7876 15.0709L8.32488 16.5038L8.51093 17.9922ZM20.615 15.9671L22.3344 7.65663L20.8655 7.35272L19.1461 15.6632L20.615 15.9671ZM3.96861 3.6888L5.05518 7.70074L6.50302 7.30862L5.41645 3.29668L3.96861 3.6888ZM5.05518 7.70074L7.69398 17.444L9.14182 17.0519L6.50302 7.30862L5.05518 7.70074ZM21.6 6.75468H5.7791V8.25468H21.6V6.75468ZM11.25 21C11.25 21.4142 10.9142 21.75 10.5 21.75V23.25C11.7426 23.25 12.75 22.2427 12.75 21H11.25ZM10.5 21.75C10.0858 21.75 9.74999 21.4142 9.74999 21H8.24999C8.24999 22.2427 9.25735 23.25 10.5 23.25V21.75ZM9.74999 21C9.74999 20.5858 10.0858 20.25 10.5 20.25V18.75C9.25735 18.75 8.24999 19.7574 8.24999 21H9.74999ZM10.5 20.25C10.9142 20.25 11.25 20.5858 11.25 21H12.75C12.75 19.7574 11.7426 18.75 10.5 18.75V20.25ZM19.25 21C19.25 21.4142 18.9142 21.75 18.5 21.75V23.25C19.7426 23.25 20.75 22.2427 20.75 21H19.25ZM18.5 21.75C18.0858 21.75 17.75 21.4142 17.75 21H16.25C16.25 22.2427 17.2574 23.25 18.5 23.25V21.75ZM17.75 21C17.75 20.5858 18.0858 20.25 18.5 20.25V18.75C17.2574 18.75 16.25 19.7574 16.25 21H17.75ZM18.5 20.25C18.9142 20.25 19.25 20.5858 19.25 21H20.75C20.75 19.7574 19.7426 18.75 18.5 18.75V20.25Z" fill="#121212"/>
</svg>
