<svg width="20" height="20" viewBox="0 0 20 20" fill="none" xmlns="http://www.w3.org/2000/svg">
<path d="M17.2194 15.6423C17.2194 15.6423 16.2539 16.5906 16.0173 16.8686C15.6318 17.28 15.1777 17.4742 14.5823 17.4742C14.525 17.4742 14.464 17.4742 14.4067 17.4704C13.2733 17.398 12.2199 16.9562 11.4299 16.5792C9.26985 15.5356 7.37309 14.0541 5.79691 12.1764C4.49551 10.6111 3.62537 9.16381 3.04909 7.60989C2.69416 6.66155 2.56441 5.92268 2.62165 5.2257C2.65982 4.78009 2.83155 4.41066 3.14832 4.09454L4.44971 2.7958C4.63672 2.62061 4.83517 2.52539 5.02981 2.52539C5.27024 2.52539 5.46488 2.67012 5.58701 2.79199C5.59082 2.7958 5.59464 2.79961 5.59846 2.80342C5.83126 3.02051 6.05261 3.24522 6.28541 3.48516C6.40372 3.60704 6.52584 3.72891 6.64797 3.8546L7.68985 4.89435C8.09439 5.29806 8.09439 5.67131 7.68985 6.07502C7.57917 6.18547 7.47231 6.29592 7.36164 6.40256C7.04106 6.7301 7.29289 6.47878 6.96087 6.77586C6.95323 6.78347 6.9456 6.78728 6.94178 6.7949C6.61357 7.12244 6.67463 7.44236 6.74333 7.65946C6.74715 7.67088 6.75096 7.68231 6.75478 7.69373C7.02574 8.34881 7.40739 8.96581 7.98748 9.70087L7.9913 9.70468C9.04463 10.9996 10.1552 12.0089 11.3803 12.782C11.5367 12.8811 11.697 12.961 11.8497 13.0372C11.9871 13.1058 12.1168 13.1705 12.2275 13.2391C12.2428 13.2467 12.258 13.2581 12.2733 13.2657C12.4031 13.3305 12.5252 13.361 12.6511 13.361C12.9679 13.361 13.1664 13.1629 13.2312 13.0982L13.9793 12.3516C14.1091 12.2221 14.3151 12.066 14.5556 12.066C14.7922 12.066 14.9868 12.2145 15.1051 12.344C15.109 12.3478 15.109 12.3478 15.1128 12.3516L17.2156 14.4502C17.6087 14.8386 17.2194 15.6423 17.2194 15.6423Z" stroke="#353535" stroke-linecap="round" stroke-linejoin="round"/>
</svg>
