<svg width="24" height="24" viewBox="0 0 24 24" fill="none" xmlns="http://www.w3.org/2000/svg">
<path d="M12.8711 6.32632C14.071 6.52742 15.1609 7.09414 16.0311 7.9625C16.9012 8.83087 17.4645 9.91861 17.6706 11.116M13.0543 2.40039C15.1884 2.76145 17.1348 3.77149 18.6827 5.3117C20.2307 6.85647 21.2382 8.79887 21.6 10.9286M19.933 19.4021C19.933 19.4021 18.7743 20.5401 18.4903 20.8737C18.0278 21.3673 17.4828 21.6004 16.7684 21.6004C16.6997 21.6004 16.6264 21.6004 16.5577 21.5958C15.1975 21.509 13.9336 20.9788 12.9856 20.5264C10.3934 19.2741 8.11734 17.4962 6.22592 15.243C4.66424 13.3646 3.62007 11.6279 2.92854 9.76321C2.50263 8.62519 2.34692 7.73854 2.41561 6.90217C2.46141 6.36744 2.6675 5.92412 3.04761 5.54478L4.60929 3.9863C4.83369 3.77606 5.07184 3.6618 5.3054 3.6618C5.59392 3.6618 5.82749 3.83547 5.97404 3.98173C5.97862 3.9863 5.9832 3.99087 5.98778 3.99544C6.26714 4.25595 6.53276 4.5256 6.81212 4.81353C6.95409 4.95978 7.10064 5.10603 7.24719 5.25685L8.49745 6.50455C8.9829 6.98901 8.9829 7.4369 8.49745 7.92136C8.36464 8.0539 8.23641 8.18644 8.1036 8.31441C7.7189 8.70746 8.0211 8.40587 7.62267 8.76236C7.61351 8.7715 7.60435 8.77607 7.59977 8.78521C7.20592 9.17826 7.27919 9.56217 7.36163 9.82268C7.3662 9.83639 7.37078 9.8501 7.37536 9.86381C7.70052 10.6499 8.15849 11.3903 8.85461 12.2724L8.85919 12.277C10.1232 13.8309 11.4559 15.042 12.926 15.9698C13.1137 16.0886 13.3061 16.1846 13.4893 16.276C13.6541 16.3583 13.8098 16.436 13.9426 16.5182C13.961 16.5274 13.9793 16.5411 13.9976 16.5502C14.1533 16.6279 14.2999 16.6645 14.451 16.6645C14.8311 16.6645 15.0693 16.4268 15.1471 16.3491L16.0448 15.4533C16.2005 15.2979 16.4478 15.1105 16.7363 15.1105C17.0203 15.1105 17.2538 15.2887 17.3958 15.4441C17.4004 15.4487 17.4004 15.4487 17.405 15.4533L19.9284 17.9715C20.4001 18.4377 19.933 19.4021 19.933 19.4021Z" stroke="white" stroke-width="1.5" stroke-linecap="round" stroke-linejoin="round"/>
</svg>
