<svg width="196" height="151" viewBox="0 0 196 151" fill="none" xmlns="http://www.w3.org/2000/svg">
<path fill-rule="evenodd" clip-rule="evenodd" d="M11.5639 135.384V51.2977H40.5711C40.7354 51.9058 41.9824 53.2062 42.4816 53.7012C48.7165 59.8643 56.2497 62.8636 65.2683 62.8636C72.3085 62.8636 79.6692 59.7246 84.4311 55.5666L86.6806 53.504C87.5825 52.6145 88.3056 51.2977 88.9835 51.2977H115.443V142.048C115.443 142.699 113.798 143.659 113.225 143.946C112.473 144.324 111.004 144.79 109.954 144.79H19.6004C15.0727 144.79 11.5639 140.787 11.5639 135.384ZM177.624 140.528L177.577 132.249H185.808L177.624 140.528ZM171.697 129.112V144.79H123.872C122.342 144.79 121.325 143.266 121.325 141.458V50.3178C121.325 48.514 122.342 46.9877 123.872 46.9877H187.376C189.007 46.9877 190.12 48.1011 190.12 49.7302V126.367H174.047C172.895 126.367 171.697 127.538 171.697 129.112ZM5.87951 44.2431V31.8945C5.87951 31.1529 7.07102 31.1118 7.83934 31.1118H32.7317C33.5206 31.1118 33.422 32.7635 33.5206 34.635C33.5884 35.8881 33.8965 37.3097 34.1513 38.5115C34.5334 40.3152 35.6098 43.6268 36.4562 45.223H6.07672C5.97401 44.7834 5.87951 44.771 5.87951 44.2431ZM116.818 45.223H92.5108C93.2956 43.5898 94.4748 40.3481 94.8158 38.7087C95.1054 37.3364 95.6293 34.2755 95.6498 32.8744C95.6581 32.0013 95.3766 31.1118 96.2353 31.1118H121.52C122.219 31.1118 123.09 31.2083 123.09 31.8945V41.1082C120.854 41.1554 117.954 43.0742 116.818 45.223ZM39.2008 31.3069C39.2008 27.2702 40.2033 24.0449 41.3825 21.14C42.6049 18.1222 45.3104 14.371 47.8537 12.3228C49.9142 10.667 50.6353 9.8453 53.4394 8.50382C61.7554 4.52457 71.9593 5.28262 79.2973 10.8108C92.3321 20.6367 93.5544 39.6208 80.799 50.9567C79.4946 52.1174 76.4993 54.0135 74.9011 54.6586C69.3297 56.9163 65.0649 57.6743 58.8793 56.3144C47.7859 53.8759 39.2008 43.4933 39.2008 31.3069ZM33.9089 25.2323C27.2446 25.2323 20.5803 25.2323 13.9161 25.2323C7.86194 25.2323 4.89343 24.2708 1.51405 27.7242C0.840223 28.4124 0 30.0415 0 31.3069V44.8327C0 48.0005 2.79595 50.8622 5.68435 51.1046V123.035C5.68435 131.242 3.82723 141.754 10.5531 147.173C13.3429 149.423 16.3751 150.869 21.3651 150.869H107.604C112.812 150.869 113.944 150.163 117.798 148.125C119.028 148.946 119.41 149.532 121.039 150.173C122.369 150.697 123.883 150.869 125.637 150.869H173.852C176.465 150.869 177.77 148.811 180.173 146.409L193.894 132.688C194.772 131.809 196 130.936 196 129.307V49.3399C196 44.0726 191.593 40.911 185.808 40.911H128.969V31.5042C128.969 30.1545 128.301 28.661 127.648 27.9234C126.726 26.8819 126.103 26.3437 124.719 25.7561C122.504 24.8152 118.239 25.2323 115.246 25.2323C108.518 25.2323 101.79 25.2323 95.0582 25.2323C92.9011 15.9734 88.4247 9.81038 80.873 4.72795C78.1181 2.87494 74.1122 1.44513 70.7986 0.691184C68.8017 0.235122 65.1512 -0.190126 63.0578 0.0892639C62.4662 0.167329 61.9629 0.113916 61.3753 0.171437C58.4335 0.465207 55.6088 1.22942 52.9176 2.29767C50.6989 3.17488 48.1495 4.58004 46.2246 5.99342C40.8094 9.97062 36.4912 15.8974 34.6484 22.4445C34.4697 23.0814 34.1718 24.6838 33.9089 25.2323Z" fill="#004A06"/>
<path fill-rule="evenodd" clip-rule="evenodd" d="M34.6937 122.055C34.6937 120.303 36.1132 119.113 37.8286 119.113H91.3378C95.2801 119.113 95.2575 124.8 91.531 124.8H37.6314C36.0002 124.8 34.6937 123.629 34.6937 122.055ZM41.3559 108.727C41.3559 105.84 42.1838 103.332 43.1863 101.343C43.7718 100.179 44.0655 99.4821 44.8277 98.4775C51.9439 89.081 58.9122 90.3033 69.7755 90.3033C72.5263 90.3033 75.4619 91.3716 77.356 92.3269C80.3533 93.8368 83.2191 96.3616 84.9324 99.2561C87.8599 104.201 88.0037 107.256 88.0037 113.236H41.3559V108.727ZM64.4836 84.4238C62.7148 84.4238 60.9563 82.7208 60.9563 80.8965C60.9563 79.7667 60.9645 78.6491 62.0923 77.7205C65.9812 74.5117 70.6075 79.9865 67.2795 83.2981C66.6612 83.9123 65.6504 84.4238 64.4836 84.4238ZM54.8796 80.3069C54.8796 83.0289 55.5452 83.4603 55.8615 84.8142C48.1187 86.6199 41.7585 90.8128 38.2189 97.9455C35.4045 103.62 35.2791 107.463 35.2791 113.628C32.2778 113.879 28.8121 117.942 28.8121 121.27C28.8121 123.434 28.732 123.855 29.7242 125.847C31.1376 128.687 33.9089 130.679 37.241 130.679H92.1205C97.6508 130.679 103.506 123.226 98.3986 116.562C97.5584 115.467 95.615 113.772 93.8852 113.628C93.8852 103.322 92.8663 98.2844 85.7028 91.0388C82.9993 88.3045 77.1547 85.1511 73.1077 84.8142C73.7075 82.2442 74.9278 80.9541 73.2248 76.6625C70.8459 70.6659 63.1236 69.3368 58.9656 72.634C58.5753 72.9442 57.998 73.3592 57.6693 73.6879C56.1758 75.1711 54.8796 78.0883 54.8796 80.3069Z" fill="#004A06"/>
<path fill-rule="evenodd" clip-rule="evenodd" d="M132.693 61.2961C132.693 62.8841 134.164 64.2359 135.828 64.2359H175.812C179.752 64.2359 179.694 58.3543 176.009 58.3543H135.241C133.84 58.3543 132.693 59.8684 132.693 61.2961Z" fill="#FCD65B"/>
<path fill-rule="evenodd" clip-rule="evenodd" d="M58.0148 36.7961C56.3673 35.693 55.1244 33.4517 53.5467 32.2519C51.33 30.5612 48.417 32.2684 48.7498 34.9061C48.9573 36.5599 51.2273 38.3369 52.7722 39.8817C54.6848 41.7943 56.3036 44.0479 58.212 44.0479C60.1226 44.0479 62.522 41.0034 64.336 39.1956L77.9583 25.3781C78.8047 24.5338 80.1647 23.4655 80.1647 21.9001C80.1647 20.3306 77.9234 16.9451 74.3324 20.5751L67.473 27.6338C66.5752 28.5192 58.9722 36.5414 58.0148 36.7961Z" fill="#FCD65B"/>
<path fill-rule="evenodd" clip-rule="evenodd" d="M132.693 78.3492C132.693 80.2063 134.195 81.4841 136.023 81.4841H158.368C162.75 81.4841 162.302 75.6046 159.153 75.6046H135.241C133.93 75.6046 132.693 76.9974 132.693 78.3492Z" fill="#FCD65B"/>
<path fill-rule="evenodd" clip-rule="evenodd" d="M132.693 89.913C132.693 91.3469 134.025 92.8507 135.436 92.8507H158.956C162.428 92.8507 162.403 86.9712 158.956 86.9712H135.436C134.09 86.9712 132.693 88.5346 132.693 89.913Z" fill="#FCD65B"/>
<path fill-rule="evenodd" clip-rule="evenodd" d="M132.693 101.475C132.693 103.065 134.164 104.415 135.828 104.415H158.564C162.524 104.415 162.644 98.5351 158.759 98.5351H135.631C133.949 98.5351 132.693 99.8786 132.693 101.475Z" fill="#FCD65B"/>
<path fill-rule="evenodd" clip-rule="evenodd" d="M132.693 112.844C132.693 114.442 133.949 115.783 135.631 115.783H158.759C162.442 115.783 162.882 109.904 158.171 109.904H135.828C134.164 109.904 132.693 111.253 132.693 112.844Z" fill="#FCD65B"/>
<path fill-rule="evenodd" clip-rule="evenodd" d="M167.188 89.913C167.188 91.7023 168.498 92.8507 170.127 92.8507H176.202C179.587 92.8507 179.587 86.9712 176.202 86.9712C172.03 86.9712 167.188 86.0488 167.188 89.913Z" fill="#FCD65B"/>
<path fill-rule="evenodd" clip-rule="evenodd" d="M167.188 101.084C167.188 105.355 171.469 104.415 175.812 104.415C179.793 104.415 179.659 98.5351 176.009 98.5351H169.737C168.533 98.5351 167.188 99.8827 167.188 101.084Z" fill="#FCD65B"/>
<path fill-rule="evenodd" clip-rule="evenodd" d="M167.188 78.1519C167.188 79.3003 167.313 79.8837 168.305 80.7609C169.558 81.8662 173.369 81.4841 175.614 81.4841C180.021 81.4841 179.372 75.6046 176.399 75.6046H169.737C168.533 75.6046 167.188 76.9502 167.188 78.1519Z" fill="#FCD65B"/>
<path fill-rule="evenodd" clip-rule="evenodd" d="M167.188 112.648C167.188 116.708 171.241 115.783 176.202 115.783C178.682 115.783 179.733 112.077 177.704 110.559C176.333 109.53 172.652 109.904 170.322 109.904C168.792 109.904 167.188 111.204 167.188 112.648Z" fill="#FCD65B"/>
</svg>
