<svg width="20" height="20" viewBox="0 0 20 20" fill="none" xmlns="http://www.w3.org/2000/svg">
<path d="M2.691 4.7219L15.3581 17.0885M2.691 4.7219C3.16229 4.18384 3.86622 3.84227 4.65268 3.84227H8.93485M2.691 4.7219C2.31195 5.15464 2.08337 5.71448 2.08337 6.32593V15.4327C2.08337 16.8044 3.23369 17.9163 4.65268 17.9163H14.0735C15.4924 17.9163 16.6428 16.8044 16.6428 15.4327V11.7072M8.93485 11.7072L3.36803 17.0885M15.0048 4.89782V4.84491M17.9167 4.83663C17.9167 6.67238 15.0048 9.12004 15.0048 9.12004C15.0048 9.12004 12.093 6.67238 12.093 4.83663C12.093 3.31585 13.3966 2.08301 15.0048 2.08301C16.613 2.08301 17.9167 3.31585 17.9167 4.83663Z" stroke="#353535" stroke-width="1.5" stroke-linecap="round" stroke-linejoin="round"/>
</svg>
