<svg width="20" height="20" viewBox="0 0 20 20" fill="none" xmlns="http://www.w3.org/2000/svg">
<path d="M17.0313 10.75C17.4455 10.75 17.7813 10.4142 17.7813 10C17.7813 9.58579 17.4455 9.25 17.0313 9.25V10.75ZM16.75 10C16.75 13.7279 13.7279 16.75 10 16.75V18.25C14.5563 18.25 18.25 14.5563 18.25 10H16.75ZM10 16.75C6.27208 16.75 3.25 13.7279 3.25 10H1.75C1.75 14.5563 5.44365 18.25 10 18.25V16.75ZM3.25 10C3.25 6.27208 6.27208 3.25 10 3.25V1.75C5.44365 1.75 1.75 5.44365 1.75 10H3.25ZM10 3.25C13.7279 3.25 16.75 6.27208 16.75 10H18.25C18.25 5.44365 14.5563 1.75 10 1.75V3.25ZM10 16.75C9.7951 16.75 9.54078 16.6582 9.24409 16.3714C8.94378 16.0811 8.63908 15.6248 8.36692 15.0027C7.82359 13.7608 7.46875 11.9926 7.46875 10H5.96875C5.96875 12.1495 6.34844 14.1314 6.99269 15.6039C7.31432 16.3391 7.71667 16.9811 8.20149 17.4498C8.68992 17.922 9.2988 18.25 10 18.25V16.75ZM7.46875 10C7.46875 8.00736 7.82359 6.23922 8.36692 4.99731C8.63908 4.37525 8.94378 3.91893 9.24409 3.6286C9.54078 3.34176 9.7951 3.25 10 3.25V1.75C9.2988 1.75 8.68992 2.07797 8.20149 2.55018C7.71667 3.01889 7.31432 3.66092 6.99269 4.39609C6.34844 5.86864 5.96875 7.85051 5.96875 10H7.46875ZM10 18.25C10.7012 18.25 11.3101 17.922 11.7985 17.4498C12.2833 16.9811 12.6857 16.3391 13.0073 15.6039C13.6516 14.1314 14.0312 12.1495 14.0312 10H12.5312C12.5312 11.9926 12.1764 13.7608 11.6331 15.0027C11.3609 15.6248 11.0562 16.0811 10.7559 16.3714C10.4592 16.6582 10.2049 16.75 10 16.75V18.25ZM14.0312 10C14.0312 7.85051 13.6516 5.86864 13.0073 4.39609C12.6857 3.66092 12.2833 3.01889 11.7985 2.55018C11.3101 2.07797 10.7012 1.75 10 1.75V3.25C10.2049 3.25 10.4592 3.34176 10.7559 3.6286C11.0562 3.91893 11.3609 4.37525 11.6331 4.99731C12.1764 6.23922 12.5312 8.00736 12.5312 10H14.0312ZM2.5 10.75L17.0313 10.75V9.25L2.5 9.25L2.5 10.75Z" fill="#353535"/>
</svg>
